<?xml version="1.0" encoding="iso-8859-1"?>
<!-- Generator: Adobe Illustrator 19.0.1, SVG Export Plug-In . SVG Version: 6.00 Build 0)  -->
<svg version="1.1" xmlns="http://www.w3.org/2000/svg" xmlns:xlink="http://www.w3.org/1999/xlink" x="0px" y="0px"
	 viewBox="0 0 128 128" style="enable-background:new 0 0 128 128;" xml:space="preserve">
<g id="_x35_">
	<path id="icon_4_" style="fill:#282828;" d="M48.377,38.008c0-13.402,6.377-22.928,10.855-27.96c-1.013-1.06-1.646-2.5-1.646-4.114
		C57.586,2.658,60.229,0,63.504,0c1.661,0,3.181,0.696,4.241,1.804c-0.491,3.75-2.545,17.224-3.291,21.251
		c-1.245,6.717,4.8,8.84,6.553,2.732c0.542-1.887,0.694-8.27,0.425-11.023c3.671,5.427,7.215,13.26,7.215,23.244H48.377z
		 M100.728,121.973H27.272V128h73.455V121.973z M95.841,106.98H32.159c-2.699,0-4.886,2.188-4.886,4.886v7.62h73.455v-7.62
		C100.728,109.168,98.54,106.98,95.841,106.98z M43.773,40.448v6.78H84.23v-6.78H43.773z M78.654,50.165H49.346v5.726h29.307V50.165
		z M76.783,59.593c0,0-3.164,29.382,17.328,40.08v4.822H33.889v-4.822c20.492-10.698,17.328-40.08,17.328-40.08H76.783z"/>
</g>
<g id="Layer_1">
</g>
</svg>
