<?xml version="1.0" encoding="iso-8859-1"?>
<!-- Generator: Adobe Illustrator 19.0.1, SVG Export Plug-In . SVG Version: 6.00 Build 0)  -->
<svg version="1.1" xmlns="http://www.w3.org/2000/svg" xmlns:xlink="http://www.w3.org/1999/xlink" x="0px" y="0px"
	 viewBox="0 0 128 128" style="enable-background:new 0 0 128 128;" xml:space="preserve">
<g id="_x37_">
	<path id="icon_6_" style="fill:#282828;" d="M92.421,128H35.579v-4.664h56.842V128z M87.582,111.734H40.418
		c-2.672,0-4.839,2.166-4.839,4.839v4.839h56.842v-4.839C92.421,113.901,90.254,111.734,87.582,111.734z M48.348,50.454v5.247
		h31.307v-5.247H48.348z M75.339,57.974H52.661v4.431h22.679V57.974z M73.892,65.269c0,0-2.449,32.532,13.409,40.811v3.731H40.7
		v-3.731c15.857-8.278,13.409-40.811,13.409-40.811H73.892z M64,20.694c0,0-14.97,5.77-19.336,4.99
		c6.861,9.512,8.732,22.455,8.732,22.455h21.207c0,0,1.871-12.943,8.732-22.455C78.97,26.464,64,20.694,64,20.694z M67.023,7.956V0
		h-6.051v7.956h-7.194v6.051h7.194v15.009h6.051V14.007h7.208V7.956H67.023z"/>
</g>
<g id="Layer_1">
</g>
</svg>
