<?xml version="1.0" encoding="iso-8859-1"?>
<!-- Generator: Adobe Illustrator 19.0.1, SVG Export Plug-In . SVG Version: 6.00 Build 0)  -->
<svg version="1.1" xmlns="http://www.w3.org/2000/svg" xmlns:xlink="http://www.w3.org/1999/xlink" x="0px" y="0px"
	 viewBox="0 0 128 128" style="enable-background:new 0 0 128 128;" xml:space="preserve">
<g id="_x33_">
	<path id="icon_2_" style="fill:#282828;" d="M37.29,102.456c0,0-33.448-64.431,15.844-87.316c0,0,4.225-12.499,10.739-15.14
		l2.112,15.14c0,0,11.443,5.809,15.492,11.091c4.049,5.281,22.709,23.061,22.709,23.061v6.69l-8.098,6.22
		c0,0-8.978-5.164-15.844-5.692c-6.866-0.528-13.027,7.042-17.076,1.408c0,0,29.047,28.519,24.998,44.538H37.29z M98.665,121.434
		h-74.85V128h74.85V121.434z M93.778,105.101H28.701c-2.699,0-4.886,2.188-4.886,4.886v8.738h74.85v-8.738
		C98.665,107.289,96.477,105.101,93.778,105.101z"/>
</g>
<g id="Layer_1">
</g>
</svg>
