<?xml version="1.0" encoding="iso-8859-1"?>
<!-- Generator: Adobe Illustrator 19.0.1, SVG Export Plug-In . SVG Version: 6.00 Build 0)  -->
<svg version="1.1" xmlns="http://www.w3.org/2000/svg" xmlns:xlink="http://www.w3.org/1999/xlink" x="0px" y="0px"
	 viewBox="0 0 128 128" style="enable-background:new 0 0 128 128;" xml:space="preserve">
<g id="_x32_">
	<path id="icon_1_" style="fill:#282828;" d="M101.221,128H26.779v-6.53h74.442V128z M96.335,105.226H31.665
		c-2.699,0-4.886,2.188-4.886,4.886v8.663h74.442v-8.663C101.221,107.414,99.033,105.226,96.335,105.226z M44.656,36.57v7.346h38.69
		V36.57H44.656z M77.305,45.384h-26.61v6.204h26.61V45.384z M75.278,53.884c0,0-3.428,31.834,18.774,43.425v5.224H33.948v-5.224
		C56.15,85.717,52.722,53.884,52.722,53.884H75.278z M64.002,0C53.315,0,44.656,8.659,44.656,19.345
		c0,5.789,2.542,10.985,6.573,14.531h25.545c4.031-3.546,6.572-8.742,6.572-14.531C83.347,8.659,74.683,0,64.002,0z"/>
</g>
<g id="Layer_1">
</g>
</svg>
