<?xml version="1.0" encoding="iso-8859-1"?>
<!-- Generator: Adobe Illustrator 19.0.1, SVG Export Plug-In . SVG Version: 6.00 Build 0)  -->
<svg version="1.1" xmlns="http://www.w3.org/2000/svg" xmlns:xlink="http://www.w3.org/1999/xlink" x="0px" y="0px"
	 viewBox="0 0 128 128" style="enable-background:new 0 0 128 128;" xml:space="preserve">
<g id="_x36_">
	<path id="icon_5_" style="fill:#282828;" d="M93.411,128H34.589v-4.826h58.822V128z M88.524,111.168H39.476
		c-2.699,0-4.886,2.188-4.886,4.886v5.128h58.822v-5.128C93.411,113.356,91.223,111.168,88.524,111.168z M47.802,42.685v5.43H80.2
		v-5.43H47.802z M75.734,50.466H52.266v4.585h23.469V50.466z M74.236,58.015c0,0-2.534,38.734,13.876,47.301v3.861H39.888v-3.861
		c16.41-8.567,13.876-47.301,13.876-47.301H74.236z M70.963,22.353L64,11.888l-6.963,10.465c0,0-8.529-4.494-13.047-5.301
		c7.1,9.844,9.037,23.237,9.037,23.237h21.946c0,0,1.936-13.394,9.037-23.237C79.491,17.858,70.963,22.353,70.963,22.353z
		 M64,10.866c3,0,5.433-2.432,5.433-5.433S67,0,64,0s-5.433,2.432-5.433,5.433S61,10.866,64,10.866z"/>
</g>
<g id="Layer_1">
</g>
</svg>
