<?xml version="1.0" encoding="iso-8859-1"?>
<!-- Generator: Adobe Illustrator 19.0.1, SVG Export Plug-In . SVG Version: 6.00 Build 0)  -->
<svg version="1.1" xmlns="http://www.w3.org/2000/svg" xmlns:xlink="http://www.w3.org/1999/xlink" x="0px" y="0px"
	 viewBox="0 0 128 128" style="enable-background:new 0 0 128 128;" xml:space="preserve">
<g id="_x34_">
	<path id="icon_3_" style="fill:#282828;" d="M106.677,128H21.323v-7.487h85.354V128z M101.791,101.888H26.209
		c-2.699,0-4.886,2.188-4.886,4.886v10.649h85.354v-10.649C106.677,104.076,104.489,101.888,101.791,101.888z M81.076,42.345H46.924
		v5.905h34.153V42.345z M81.076,32.35H46.924v6.995h34.153V32.35z M80.863,50.882c0,0-7.862,28.637,17.594,41.927v5.99H29.543v-5.99
		C55,79.52,47.137,50.882,47.137,50.882H80.863z M80.467,0l-4.234,11.576h-4.529V0H56.303v11.576h-4.536L47.54,0H35.216
		c0,0,10.631,28.222,11.107,29.878h35.361C82.16,28.222,92.784,0,92.784,0H80.467z"/>
</g>
<g id="Layer_1">
</g>
</svg>
